<?xml version="1.0" encoding="UTF-8"?>
<svg width="24px" height="27px" viewBox="0 0 24 27" version="1.1" xmlns="http://www.w3.org/2000/svg" xmlns:xlink="http://www.w3.org/1999/xlink">
    <!-- Generator: Sketch 43.1 (39012) - http://www.bohemiancoding.com/sketch -->
    <title>Group Copy 7</title>
    <desc>Created with Sketch.</desc>
    <defs></defs>
    <g id="web" stroke="none" stroke-width="1" fill="none" fill-rule="evenodd" fill-opacity="0.400000006">
        <g id="05-mis-cupones" transform="translate(-709.000000, -402.000000)" fill-rule="nonzero" fill="#000000">
            <g id="Group-Copy-7" transform="translate(720.579103, 414.460487) scale(-1, -1) rotate(135.000000) translate(-720.579103, -414.460487) translate(706.079103, 407.460487)">
                <path d="M21.9480348,0.13890476 C18.9122426,0.13890476 16.3184594,2.15498585 15.4430338,4.91634811 L2.15576953,4.91634811 C1.02501694,4.91634811 0.108293809,5.83300299 0.108293809,6.96382383 L0.108293809,11.7412672 C0.108293809,12.8720198 1.02501694,13.7887429 2.15576953,13.7887429 C3.28652212,13.7887429 4.20324525,12.8720198 4.20324525,11.7412672 L4.20324525,9.01129955 L6.93321288,9.01129955 L6.93321288,11.7412672 C6.93321288,12.8720198 7.84993601,13.7887429 8.9806886,13.7887429 C10.1114412,13.7887429 11.0281643,12.8720198 11.0281643,11.7412672 L11.0281643,9.01129955 L15.4430338,9.01129955 C16.3184594,11.7726618 18.9122426,13.7887429 21.9480348,13.7887429 C25.6930795,13.7887429 28.7729539,10.7088617 28.7729539,6.96382383 C28.7729539,3.21878599 25.6930795,0.13890476 21.9480348,0.13890476 Z M21.9480348,4.2338562 C23.4800039,4.2338562 24.6780025,5.43183425 24.6780025,6.96382383 C24.6780025,8.49581341 23.4800039,9.69379146 21.9480348,9.69379146 C20.4160657,9.69379146 19.2180672,8.49581341 19.2180672,6.96382383 C19.2180672,5.43183425 20.4160657,4.2338562 21.9480348,4.2338562 Z" id="Shape"></path>
            </g>
        </g>
    </g>
</svg>