<?xml version="1.0" encoding="UTF-8" standalone="no"?>
<svg width="932px" height="845px" viewBox="0 0 932 845" version="1.1" xmlns="http://www.w3.org/2000/svg" xmlns:xlink="http://www.w3.org/1999/xlink" style="background: #FFFFFF;">
<style>
    .activo {
        fill:#ff6702;
        animation: parpadeo 1s;
        -webkit-animation: parpadeo 1s;
        -moz-animation: parpadeo 1s;
        animation-iteration-count:infinite;
        -webkit-animation-iteration-count:infinite;
        -moz-animation-iteration-count:infinite;
    }
    @keyframes parpadeo { 
        0% {fill: white;}
        100%{fill:#ff6702;} 
    }

    @-webkit-keyframes parpadeo { 
        0% {fill: white;}
        100%{fill:#ff6702;} 
    }
</style>
    <title>Piso3</title>
    <defs>
        <polygon id="path-1" points="9.00849973e-05 0.218587697 31.0339211 0.218587697 31.0339211 24.3124673 9.00849973e-05 24.3124673"></polygon>
    </defs>
    <g id="Page-2" stroke="none" stroke-width="1" fill="none" fill-rule="evenodd">
        <g id="Piso3">
            <g id="elementos" transform="translate(28.000000, 52.000000)">
                <text id="Av.-Manquehue-Sur" transform="translate(12.500000, 387.469204) rotate(-90.000000) translate(-12.500000, -387.469204) " font-family="verdana" font-size="20" font-weight="normal" fill="#000000">
                    <tspan x="-76.9692039" y="393.969204">Av. Manquehue Sur</tspan>
                </text>
                <text id="Mar-de-Los-Sargazos" transform="translate(849.500000, 418.835161) rotate(-270.000000) translate(-849.500000, -418.835161) " font-family="verdana" font-size="20" font-weight="normal" fill="#000000">
                    <tspan x="740.664839" y="425.335161">Mar de Los Sargazos</tspan>
                </text>
                <text id="Calle-Del-Inca" font-family="verdana" font-size="20" font-weight="normal" fill="#000000">
                    <tspan x="414" y="19">Calle Del Inca</tspan>
                </text>
                <text id="Av.-Apoquindo" font-family="verdana" font-size="20" font-weight="normal" fill="#000000">
                    <tspan x="375.185547" y="766">Av. Apoquindo</tspan>
                </text>
                <g id="metro-manquehue" transform="translate(747.000000, 728.000000)">
                    <g>
                        <g id="metro-icn" transform="translate(33.000000, 0.000000)">
                            <g>
                                <polygon id="Fill-1" fill="#DA0000" points="7.66875562 18.8959047 3.74465315 12.2720896 7.66875562 5.64827458 11.5928581 12.2720896"></polygon>
                                <polygon id="Fill-2" fill="#DA0000" points="15.5170056 18.8959047 11.5929031 12.2720896 15.5170056 5.64827458 19.4411081 12.2720896"></polygon>
                                <polygon id="Fill-3" fill="#DA0000" points="23.3652556 18.8959047 19.4411531 12.2720896 23.3652556 5.64827458 27.289358 12.2720896"></polygon>
                                <g id="Group-6" transform="translate(0.000000, 0.006528)">
                                    <mask id="mask-2" fill="white">
                                        <use xlink:href="#path-1"></use>
                                    </mask>
                                    <g id="Clip-5"></g>
                                    <path d="M15.5170056,1.23154245 C7.51970999,1.23154245 1.0135463,6.18139444 1.0135463,12.2656063 C1.0135463,18.349593 7.51970999,23.299445 15.5170056,23.299445 C23.5143012,23.299445 30.0204649,18.349593 30.0204649,12.2656063 C30.0204649,6.18139444 23.5143012,1.23154245 15.5170056,1.23154245 M15.5170056,24.3124673 C6.96095779,24.3124673 9.00849973e-05,18.9081059 9.00849973e-05,12.2656063 C9.00849973e-05,5.62265637 6.96095779,0.218520162 15.5170056,0.218520162 C24.0730534,0.218520162 31.0339211,5.62265637 31.0339211,12.2656063 C31.0339211,18.9081059 24.0730534,24.3124673 15.5170056,24.3124673" id="Fill-4" fill="#DA0000" mask="url(#mask-2)"></path>
                                </g>
                            </g>
                        </g>
                        <text id="Metro-Manquehue" font-family="verdana" font-size="13" font-weight="normal" fill="#000000">
                            <tspan x="31.7138672" y="40">Metro </tspan>
                            <tspan x="13.9436035" y="56">Manquehue</tspan>
                        </text>
                    </g>
                </g>
                <g id="bicicletas" transform="translate(309.000000, 44.000000)">
                    <rect id="Rectangle-22" fill="#F5F5F5" x="0.350552011" y="0.0781630877" width="341.219447" height="26.1734943"></rect>
                    <path d="M76.170361,10.9072983 C75.4463755,10.9072983 74.7947885,11.0553384 74.2156,11.2773986 L72.5504332,8.46463622 L73.0572231,7.20629515 L73.2744188,7.20629515 C73.7088101,7.20629515 73.9984043,6.9102149 73.9984043,6.46609452 C73.9984043,6.02197414 73.7088101,5.72589389 73.2744188,5.72589389 L71.1024621,5.72589389 C70.6680708,5.72589389 70.3784765,6.02197414 70.3784765,6.46609452 C70.3784765,6.9102149 70.6680708,7.20629515 71.1024621,7.20629515 L71.4644549,7.20629515 L71.1748606,7.94649578 L64.586592,7.94649578 L64.586592,4.98569326 L60.9666642,4.98569326 L60.9666642,6.46609452 L63.1386209,6.46609452 L63.1386209,8.53865628 L61.8354469,11.2033786 C61.328657,10.9813184 60.8218671,10.9072983 60.2426786,10.9072983 C57.4191349,10.9072983 55.1747797,13.2019202 55.1747797,16.0887027 C55.1747797,18.9754852 57.4191349,21.2701071 60.2426786,21.2701071 C63.0662223,21.2701071 65.3105776,18.9754852 65.3105776,16.0887027 C65.3105776,14.3122212 64.4417949,12.7577999 63.1386209,11.8695591 L64.0074036,10.1670977 L68.5685126,16.9029234 L71.1748606,16.9029234 C71.5368534,19.4196055 73.6364116,21.3441272 76.170361,21.3441272 C78.9939047,21.3441272 81.23826,19.0495052 81.23826,16.1627228 C81.23826,13.2019202 78.9939047,10.9072983 76.170361,10.9072983 Z M63.8626065,16.0887027 C63.8626065,18.1612645 62.2698382,19.7897059 60.2426786,19.7897059 C58.2155191,19.7897059 56.6227508,18.1612645 56.6227508,16.0887027 C56.6227508,14.0161409 58.2155191,12.3876996 60.2426786,12.3876996 C60.5322729,12.3876996 60.8942657,12.4617196 61.1838599,12.5357397 L59.5910916,15.7926225 L59.5910916,15.7926225 C59.5186931,15.8666425 59.5186931,15.9406626 59.5186931,16.0887027 C59.5186931,16.5328231 59.8082873,16.8289033 60.2426786,16.8289033 C60.5322729,16.8289033 60.7494685,16.6808632 60.8942657,16.384783 L60.8942657,16.384783 L62.4870339,13.1279002 C63.283418,13.8681008 63.8626065,14.9043817 63.8626065,16.0887027 Z M72.9848246,12.0916193 C72.0436433,12.90584 71.3920563,14.0161409 71.1748606,15.3485021 L70.0164837,15.3485021 L71.8988462,10.2411177 L72.9848246,12.0916193 Z M73.7088101,13.3499604 L74.867187,15.3485021 L72.6228318,15.3485021 C72.7676289,14.5342814 73.2020202,13.8681008 73.7088101,13.3499604 Z M68.7133097,14.5342814 L65.238179,9.42689704 L70.6680708,9.42689704 L68.7133097,14.5342814 Z M76.170361,19.7897059 C74.4327957,19.7897059 72.9848246,18.5313648 72.6228318,16.8289033 L76.170361,16.8289033 C76.6047524,16.8289033 76.8943466,16.5328231 76.8943466,16.0887027 C76.8943466,15.9406626 76.821948,15.7926225 76.7495495,15.7186024 L76.7495495,15.7186024 L74.9395856,12.6097597 C75.3015784,12.4617196 75.7359697,12.3876996 76.170361,12.3876996 C78.1975206,12.3876996 79.7902888,14.0161409 79.7902888,16.0887027 C79.7902888,18.1612645 78.1975206,19.7897059 76.170361,19.7897059 Z" id="Page-1-Copy-4" fill="#000000"></path>
                    <text id="Estacionamiento-bici" font-family="verdana" font-size="14" font-weight="normal" fill="#000000">
                        <tspan x="110.817279" y="17.6215367">Estacionamiento bicicletas</tspan>
                    </text>
                </g>
                <g id="Mapa" transform="translate(85.000000, 122.000000)">
                    <g id="cuadrados" transform="translate(191.000000, 138.000000)">
                        <g id="rectangulo">
                            <g id="path-1-link" fill="#D9EEB2">
                                <polygon id="path-1" points="0.603456611 0.714856492 6.46086859 0.714856492 16.002754 0.714856492 16.002754 26.6856997 0.603456611 26.6856997"></polygon>
                            </g>
                            <polygon id="Shape" stroke="#FFFFFF" stroke-width="1.05" points="1.12845661 1.23985649 6.46086859 1.23985649 15.477754 1.23985649 15.477754 26.1606997 1.12845661 26.1606997"></polygon>
                        </g>
                        <g id="rectangulo" transform="translate(15.000000, 0.000000)">
                            <g id="path-2-link" fill="#D9EEB2">
                                <polygon id="path-2" points="0.0599398 0.714856492 15.9586295 0.714856492 41.8580326 0.714856492 41.8580326 26.6856997 0.0599398 26.6856997"></polygon>
                            </g>
                            <polygon id="Shape" stroke="#FFFFFF" stroke-width="1.05" points="0.5849398 1.23985649 15.9586295 1.23985649 41.3330326 1.23985649 41.3330326 26.1606997 0.5849398 26.1606997"></polygon>
                        </g>
                        <g id="rectgangulo" transform="translate(55.000000, 0.000000)">
                            <g id="path-3-link" fill="#D9EEB2">
                                <polygon id="path-3" points="0.9152185 0.714856492 20.0414617 0.714856492 51.198638 0.714856492 51.198638 26.6856997 0.9152185 26.6856997"></polygon>
                            </g>
                            <polygon id="Shape" stroke="#FFFFFF" stroke-width="1.05" points="1.4402185 1.23985649 20.0414617 1.23985649 50.673638 1.23985649 50.673638 26.1606997 1.4402185 26.1606997"></polygon>
                        </g>
                        <g id="rectangulo" transform="translate(0.000000, 278.000000)">
                            <g id="path-4-link" fill-opacity="0.300000012" fill="#82C700">
                                <polygon id="path-4" points="0.603456611 0.311333 5.74363447 0.311333 14.1171257 0.311333 14.1171257 24.448941 0.603456611 24.448941"></polygon>
                            </g>
                            <polygon id="Shape" stroke="#FFFFFF" stroke-width="1.05" points="1.12845661 0.836333 5.74363447 0.836333 13.5921257 0.836333 13.5921257 23.923941 1.12845661 23.923941"></polygon>
                        </g>
                        <g id="rectangulo" transform="translate(92.000000, 256.000000)">
                            <g id="path-5-link" fill-opacity="0.300000012" fill="#82C700">
                                <polygon id="path-5" points="0.3706979 0.451277 8.021195 0.451277 20.484066 0.451277 20.484066 19.700255 0.3706979 19.700255"></polygon>
                            </g>
                            <polygon id="Shape" stroke="#FFFFFF" stroke-width="1.05" points="0.8956979 0.976277 8.021195 0.976277 19.959066 0.976277 19.959066 19.175255 0.8956979 19.175255"></polygon>
                        </g>
                        <g id="rectangulo" transform="translate(101.000000, 274.000000)">
                            <g id="path-6-link" fill-opacity="0.300000012" fill="#82C700">
                                <polygon id="path-6" points="0.170296 0.783637 20.133313 0.783637 52.653616 0.783637 52.653616 26.448941 0.170296 26.448941"></polygon>
                            </g>
                            <polygon id="Shape" stroke="#FFFFFF" stroke-width="1.05" points="0.695296 1.308637 20.133313 1.308637 52.128616 1.308637 52.128616 25.923941 0.695296 25.923941"></polygon>
                        </g>
                        <g id="rectgangulo" transform="translate(108.000000, 299.000000)">
                            <g id="path-7-link" fill-opacity="0.300000012" fill="#82C700">
                                <polygon id="path-7" points="0.712809 0.532323 5.255292 0.532323 12.655122 0.532323 12.655122 19.781301 0.712809 19.781301"></polygon>
                            </g>
                            <polygon id="Shape" stroke="#FFFFFF" stroke-width="1.05" points="1.237809 1.057323 5.255292 1.057323 12.130122 1.057323 12.130122 19.256301 1.237809 19.256301"></polygon>
                        </g>
                        <g id="rectangulo" transform="translate(152.000000, 274.000000)">
                            <g id="path-8-link" fill-opacity="0.300000012" fill="#82C700">
                                <polygon id="path-8" points="0.710802 0.783637 15.414101 0.783637 39.366181 0.783637 39.366181 26.448941 0.710802 26.448941"></polygon>
                            </g>
                            <polygon id="Shape" stroke="#FFFFFF" stroke-width="1.05" points="1.235802 1.308637 15.414101 1.308637 38.841181 1.308637 38.841181 25.923941 1.235802 25.923941"></polygon>
                        </g>
                        <g id="rectangulo" transform="translate(190.000000, 274.000000)">
                            <g id="path-9-link" fill-opacity="0.300000012" fill="#82C700">
                                <polygon id="path-9" points="0.423367 0.783637 11.779574 0.783637 30.279147 0.783637 30.279147 26.448941 0.423367 26.448941"></polygon>
                            </g>
                            <polygon id="Shape" stroke="#FFFFFF" stroke-width="1.05" points="0.948367 1.308637 11.779574 1.308637 29.754147 1.308637 29.754147 25.923941 0.948367 25.923941"></polygon>
                        </g>
                        <g id="rectangulo" transform="translate(145.000000, 0.000000)">
                            <g id="path-10-link" fill="#D9EEB2">
                                <polygon id="path-10" points="0.168289 0.714856492 18.577298 0.714856492 48.566081 0.714856492 48.566081 26.6856997 0.168289 26.6856997"></polygon>
                            </g>
                            <polygon id="Shape" stroke="#FFFFFF" stroke-width="1.05" points="0.693289 1.23985649 18.577298 1.23985649 48.041081 1.23985649 48.041081 26.1606997 0.693289 26.1606997"></polygon>
                        </g>
                        <g id="rectangulo" transform="translate(192.000000, 0.000000)">
                            <g id="path-11-link" fill="#D9EEB2">
                                <polygon id="path-11" points="0.623266 0.714856492 16.0438 0.714856492 41.164274 0.714856492 41.164274 26.6856997 0.623266 26.6856997"></polygon>
                            </g>
                            <polygon id="Shape" stroke="#FFFFFF" stroke-width="1.05" points="1.148266 1.23985649 16.0438 1.23985649 40.639274 1.23985649 40.639274 26.1606997 1.148266 26.1606997"></polygon>
                        </g>
                    </g>
                    <g id="Baños" transform="translate(310.000000, 437.000000)">
                        <g id="path-12-link" fill-opacity="0.300000012" fill="#82C700">
                            <polygon id="path-12" points="0.712308 0.532323 38.964794 0.532323 101.279147 0.532323 101.279147 19.781301 0.712308 19.781301"></polygon>
                        </g>
                        <polygon id="Shape" stroke="#FFFFFF" stroke-width="1.05" points="1.237308 1.057323 38.964794 1.057323 100.754147 1.057323 100.754147 19.256301 1.237308 19.256301"></polygon>
                    </g>
                    <g id="locales" transform="translate(191.000000, 109.000000)">
                        <polygon id="Local-T10" stroke="#D9EEB2" stroke-width="3" points="232 148 232 31.4957082 0.999471556 31.4957082 0.999471556 330.510456 218.099512 330.510456 218.099512 303.958119 231.014475 303.958119"></polygon>
                        <path d="M233,268 L296.007936,268 C296.007936,268 299,239 264.5,213.5 L233,213.5 L233,268 Z" id="Local-T9" fill="#D9EEB2" fill-rule="nonzero"></path>
                        <g id="Local-T8b" transform="translate(243.000000, 268.000000)">
                            <g id="path-13-link" fill-opacity="0.300000012" fill="#82C700">
                                <polygon id="path-13" points="0.535229 0.341074 20.856862 0.341074 53.961363 0.341074 53.961363 35.783637 0.535229 35.783637"></polygon>
                            </g>
                            <polygon id="Shape" stroke="#FFFFFF" stroke-width="1.05" points="1.060229 0.866074 20.856862 0.866074 53.436363 0.866074 53.436363 35.258637 1.060229 35.258637"></polygon>
                        </g>
                        <g id="Local-T8a" transform="translate(244.000000, 302.000000)">
                            <g id="path-14-link" fill-opacity="0.300000012" fill="#82C700">
                                <polygon id="path-14" points="0.478043 0.867019 20.441059 0.867019 52.961363 0.867019 52.961363 26.837862 0.478043 26.837862"></polygon>
                            </g>
                            <polygon id="Shape" stroke="#FFFFFF" stroke-width="1.05" points="1.003043 1.392019 20.441059 1.392019 52.436363 1.392019 52.436363 26.312862 1.003043 26.312862"></polygon>
                        </g>
                        <g id="Local-T11b" class="activo" transform="translate(246.000000, 29.000000)">
                            <g id="path-15-link" fill="#D9EEB2">
                                <polygon id="path-15" points="0.677943 0.7148565 19.804186 0.7148565 50.961363 0.7148565 50.961363 26.3801603 0.677943 26.3801603"></polygon>
                            </g>
                            <polygon id="Shape" stroke="#FFFFFF" stroke-width="1.05" points="1.202943 1.2398565 19.804186 1.2398565 50.436363 1.2398565 50.436363 25.8551603 1.202943 25.8551603"></polygon>
                        </g>
                        <g id="Local-T11a" transform="translate(246.000000, 53.000000)" fill="#D9EEB2">
                            <g id="path-16-link">
                                <polygon id="path-16" points="0.677943 0.7148565 19.804186 0.7148565 50.961363 0.7148565 50.961363 36.1574189 0.677943 36.1574189"></polygon>
                            </g>
                            <polygon id="Shape" stroke="#FFFFFF" stroke-width="1.05" fill-rule="nonzero" points="1.202943 1.2398565 19.804186 1.2398565 50.436363 1.2398565 50.436363 35.6324189 1.202943 35.6324189"></polygon>
                        </g>
                        <g id="Local-T6" transform="translate(446.000000, 52.000000)">
                            <g id="path-17-link" fill-opacity="0.300000012" fill="#82C700">
                                <polygon id="path-17" points="0.868808 0.0192277 24.896151 0.0192277 64.037355 0.0192277 64.037355 54.710768 0.868808 54.710768"></polygon>
                            </g>
                            <polygon id="Shape" stroke="#FFFFFF" stroke-width="1.05" points="1.393808 0.5442277 24.896151 0.5442277 63.512355 0.5442277 63.512355 54.185768 1.393808 54.185768"></polygon>
                        </g>
                        <g id="Local-T5" transform="translate(446.000000, 105.000000)">
                            <g id="path-18-link" fill-opacity="0.300000012" fill="#82C700">
                                <polygon id="path-18" points="0.868808 0.79415 24.896151 0.79415 64.037355 0.79415 64.037355 54.874612 0.868808 54.874612"></polygon>
                            </g>
                            <polygon id="Shape" stroke="#FFFFFF" stroke-width="1.05" points="1.393808 1.31915 24.896151 1.31915 63.512355 1.31915 63.512355 54.349612 1.393808 54.349612"></polygon>
                        </g>
                        <g id="Loacl-T4" transform="translate(446.000000, 158.000000)">
                            <g id="path-19-link" fill="#D9EEB2">
                                <polygon id="path-19" points="0.868808 0.957994 24.896151 0.957994 64.037355 0.957994 64.037355 52.89968 0.868808 52.89968"></polygon>
                            </g>
                            <polygon id="Shape" stroke="#FFFFFF" stroke-width="1.05" points="1.393808 1.482994 24.896151 1.482994 63.512355 1.482994 63.512355 52.37468 1.393808 52.37468"></polygon>
                        </g>
                        <g id="Local-T3" transform="translate(446.000000, 209.000000)">
                            <g id="path-20-link" fill-opacity="0.300000012" fill="#82C700">
                                <polygon id="path-20" points="0.868808 0.983062 24.896151 0.983062 64.037355 0.983062 64.037355 53.535827 0.868808 53.535827"></polygon>
                            </g>
                            <polygon id="Shape" stroke="#FFFFFF" stroke-width="1.05" points="1.393808 1.508062 24.896151 1.508062 63.512355 1.508062 63.512355 53.010827 1.393808 53.010827"></polygon>
                        </g>
                        <g id="Local-T2" transform="translate(446.000000, 261.000000)">
                            <g id="path-21-link" fill-opacity="0.300000012" fill="#82C700">
                                <polygon id="path-21" points="0.868808 0.619209 24.896151 0.619209 64.037355 0.619209 64.037355 54.699671 0.868808 54.699671"></polygon>
                            </g>
                            <polygon id="Shape" stroke="#FFFFFF" stroke-width="1.05" points="1.393808 1.144209 24.896151 1.144209 63.512355 1.144209 63.512355 54.174671 1.393808 54.174671"></polygon>
                        </g>
                        <g id="Local-T1" transform="translate(446.000000, 314.000000)">
                            <g id="path-22-link" fill-opacity="0.300000012" fill="#82C700">
                                <polygon id="path-22" points="0.868808 0.783053 24.896151 0.783053 64.037355 0.783053 64.037355 53.335818 0.868808 53.335818"></polygon>
                            </g>
                            <polygon id="Shape" stroke="#FFFFFF" stroke-width="1.05" points="1.393808 1.308053 24.896151 1.308053 63.512355 1.308053 63.512355 52.810818 1.393808 52.810818"></polygon>
                        </g>
                        <g id="Local-T7" transform="translate(446.000000, 0.000000)">
                            <g id="path-23-link" fill-opacity="0.300000012" fill="#82C700">
                                <polygon id="path-23" points="23.822858 0.38308067 64.037355 0.38308067 64.037355 52.9358457 0.868808 52.9358457 0.868808 23.3300329"></polygon>
                            </g>
                            <polygon id="Shape" stroke="#FFFFFF" stroke-width="1.05" points="24.040272 0.90808067 63.512355 0.90808067 63.512355 52.4108457 1.393808 52.4108457 1.393808 23.5475426"></polygon>
                        </g>
                        <g id="Local-T10" transform="translate(232.000000, 88.000000)">
                            <g id="path-24-link" fill="#D9EEB2">
                                <polygon id="path-24" points="0.22146 0.0728688 24.846498 0.0728688 64.961363 0.0728688 64.961363 39.586064 43.188057 60.264117 0.22146 60.264117"></polygon>
                            </g>
                            <polygon id="Shape" stroke="#FFFFFF" stroke-width="1.05" points="0.74646 0.5978688 24.846498 0.5978688 64.436363 0.5978688 64.436363 39.360626 42.978486 59.739117 0.74646 59.739117"></polygon>
                        </g>
                    </g>
                    <g id="lineas" transform="translate(410.000000, 0.000000)">
                        <polyline id="Line" stroke-opacity="0.3" stroke="#82C700" points="290.53526 109.384822 290.53526 0 77.3328199 1.73386272e-14 77.3328199 47.1710057"></polyline>
                        <path d="M77.9164668,78.6763779 L77.9164668,121.147444" id="Line" stroke-opacity="0.3" stroke="#82C700" fill-opacity="0.300000012" fill="#82C700" fill-rule="nonzero"></path>
                        <polyline id="Line-Copy-3" stroke-opacity="0.3" stroke="#82C700" points="77.3538034 547.829803 77.3538034 583.856346 257.44708 583.779779 290.565947 554.643803 290.565947 474.95915"></polyline>
                        <polyline id="Line" stroke="#D9EEB2" points="0.493468897 456.322992 77.18148 456.322992 77.18148 516.09991"></polyline>
                        <path d="M0.803246296,413.241946 L13.0598299,413.241946 L13.0598299,322.472702 L45.7180065,322.472702 C45.7180065,322.472702 77.5,339.626791 77.5,375.5" id="Line" stroke="#D9EEB2"></path>
                    </g>
                    <g id="puntos" transform="translate(519.388500, 105.105530)" fill-rule="nonzero" fill="#84BB1F">
                        <ellipse id="Oval" cx="2.67130668" cy="2.59708432" rx="2.67130668" ry="2.59708432"></ellipse>
                        <ellipse id="Oval-Copy" cx="2.67130668" cy="55.2371463" rx="2.67130668" ry="2.59708432"></ellipse>
                        <ellipse id="Oval-Copy-2" cx="2.67130668" cy="107.877208" rx="2.67130668" ry="2.59708432"></ellipse>
                        <ellipse id="Oval-Copy-3" cx="2.67130668" cy="160.51727" rx="2.67130668" ry="2.59708432"></ellipse>
                        <ellipse id="Oval-Copy-4" cx="2.67130668" cy="213.157332" rx="2.67130668" ry="2.59708432"></ellipse>
                        <ellipse id="Oval-Copy-5" cx="2.67130668" cy="265.797394" rx="2.67130668" ry="2.59708432"></ellipse>
                        <ellipse id="Oval-Copy-6" cx="2.67130668" cy="318.437456" rx="2.67130668" ry="2.59708432"></ellipse>
                        <ellipse id="Oval-Copy-7" cx="2.67130668" cy="371.077518" rx="2.67130668" ry="2.59708432"></ellipse>
                    </g>
                    <g id="puntos" transform="translate(581.299961, 105.105530)" fill-rule="nonzero" fill="#84BB1F">
                        <ellipse id="Oval" cx="2.67130668" cy="2.59708432" rx="2.67130668" ry="2.59708432"></ellipse>
                        <ellipse id="Oval-Copy" cx="2.67130668" cy="55.2371463" rx="2.67130668" ry="2.59708432"></ellipse>
                        <ellipse id="Oval-Copy-2" cx="2.67130668" cy="107.877208" rx="2.67130668" ry="2.59708432"></ellipse>
                        <ellipse id="Oval-Copy-3" cx="2.67130668" cy="160.51727" rx="2.67130668" ry="2.59708432"></ellipse>
                        <ellipse id="Oval-Copy-4" cx="2.67130668" cy="213.157332" rx="2.67130668" ry="2.59708432"></ellipse>
                        <ellipse id="Oval-Copy-5" cx="2.67130668" cy="265.797394" rx="2.67130668" ry="2.59708432"></ellipse>
                        <ellipse id="Oval-Copy-6" cx="2.67130668" cy="318.437456" rx="2.67130668" ry="2.59708432"></ellipse>
                        <ellipse id="Oval-Copy-7" cx="2.67130668" cy="371.077518" rx="2.67130668" ry="2.59708432"></ellipse>
                    </g>
                    <g id="puntos" transform="translate(241.572605, 214.183071)" fill-rule="nonzero" fill="#84BB1F">
                        <ellipse id="Oval" cx="154.778652" cy="2.59708432" rx="2.67130668" ry="2.59708432"></ellipse>
                        <ellipse id="Oval-Copy-9" cx="154.778652" cy="152.922435" rx="2.67130668" ry="2.59708432"></ellipse>
                        <ellipse id="Oval-Copy-8" cx="2.67130668" cy="2.59708432" rx="2.67130668" ry="2.59708432"></ellipse>
                        <ellipse id="Oval-Copy-10" cx="2.67130668" cy="152.922435" rx="2.67130668" ry="2.59708432"></ellipse>
                    </g>
                    <g id="escalera" transform="translate(559.000000, 507.000000)">
                        <path d="M50.8110721,25.1164682 C51.5371847,25.1164682 52.1464414,25.5096388 52.4277283,26.0953711 L49.0270117,29.3827143 L49.0270117,26.8409007 C49.0270117,25.8706201 49.8072408,25.1164682 50.8110721,25.1164682 L50.8110721,25.1164682 Z M60.4191297,20.805387 L63.5968387,20.805387 C64.2712135,20.805387 64.7862123,21.3031731 64.7862123,21.9550086 C64.7862123,22.6068441 64.2712135,23.1046303 63.5968387,23.1046303 L61.784828,23.1046303 C61.5481426,23.1040555 61.3206749,23.1945882 61.1529732,23.3561101 L45.9512915,38.0497121 L42.7828001,38.0497121 C42.1084253,38.0497121 41.5934265,37.5519259 41.5934265,36.9000904 C41.5934265,36.2482549 42.1084253,35.7504687 42.7828001,35.7504687 L44.5948109,35.7504687 C44.8329829,35.7487443 45.0604506,35.6547627 45.2266656,35.4900794 L60.4191297,20.805387 Z M59.9635996,19.0809545 C59.7593247,19.1022225 59.5690249,19.1910307 59.4248133,19.3324342 L53.7101704,24.8560789 C53.0631511,23.9740317 52.0069873,23.3920357 50.8110721,23.3920357 C48.849795,23.3920357 47.2429512,24.9451746 47.2429512,26.8409007 L47.2429512,31.1071468 L44.2231316,34.0260362 L42.7828001,34.0260362 C41.1509795,34.0260362 39.809366,35.3228094 39.809366,36.9000904 C39.809366,38.4773713 41.1509795,39.7741446 42.7828001,39.7741446 L46.3229707,39.7741446 C46.5611428,39.7724201 46.7886105,39.6784386 46.9548255,39.5137553 L62.1472896,24.8290628 L63.5968387,24.8290628 C65.2286593,24.8290628 66.5702728,23.5322896 66.5702728,21.9550086 C66.5702728,20.3777277 65.2286593,19.0809545 63.5968387,19.0809545 L60.0566681,19.0809545 C60.0257444,19.0795174 59.9945233,19.0795174 59.9635996,19.0809545 L59.9635996,19.0809545 Z M50.8110721,18.5061436 C51.4786081,18.5061436 52.0004458,19.0105401 52.0004458,19.6557653 C52.0004458,20.3009905 51.4786081,20.805387 50.8110721,20.805387 C50.1435362,20.805387 49.6216985,20.3009905 49.6216985,19.6557653 C49.6216985,19.0105401 50.1435362,18.5061436 50.8110721,18.5061436 L50.8110721,18.5061436 Z M50.8110721,16.7817111 C49.1795489,16.7817111 47.8376381,18.0787718 47.8376381,19.6557653 C47.8376381,21.2327588 49.1795489,22.5298195 50.8110721,22.5298195 C52.4425954,22.5298195 53.7845062,21.2327588 53.7845062,19.6557653 C53.7845062,18.0787718 52.4425954,16.7817111 50.8110721,16.7817111 L50.8110721,16.7817111 Z" id="Page-1-Copy-15" fill="#257961"></path>
                        <rect id="Rectangle-18-Copy-3" stroke-opacity="0.3" stroke="#82C700" stroke-width="3" x="0.85815056" y="0.47313293" width="104.48081" height="56.2746303"></rect>
                    </g>
                    <g id="escalera" transform="translate(0.000000, 507.000000)">
                        <path d="M50.8110721,25.1164682 C51.5371847,25.1164682 52.1464414,25.5096388 52.4277283,26.0953711 L49.0270117,29.3827143 L49.0270117,26.8409007 C49.0270117,25.8706201 49.8072408,25.1164682 50.8110721,25.1164682 L50.8110721,25.1164682 Z M60.4191297,20.805387 L63.5968387,20.805387 C64.2712135,20.805387 64.7862123,21.3031731 64.7862123,21.9550086 C64.7862123,22.6068441 64.2712135,23.1046303 63.5968387,23.1046303 L61.784828,23.1046303 C61.5481426,23.1040555 61.3206749,23.1945882 61.1529732,23.3561101 L45.9512915,38.0497121 L42.7828001,38.0497121 C42.1084253,38.0497121 41.5934265,37.5519259 41.5934265,36.9000904 C41.5934265,36.2482549 42.1084253,35.7504687 42.7828001,35.7504687 L44.5948109,35.7504687 C44.8329829,35.7487443 45.0604506,35.6547627 45.2266656,35.4900794 L60.4191297,20.805387 Z M59.9635996,19.0809545 C59.7593247,19.1022225 59.5690249,19.1910307 59.4248133,19.3324342 L53.7101704,24.8560789 C53.0631511,23.9740317 52.0069873,23.3920357 50.8110721,23.3920357 C48.849795,23.3920357 47.2429512,24.9451746 47.2429512,26.8409007 L47.2429512,31.1071468 L44.2231316,34.0260362 L42.7828001,34.0260362 C41.1509795,34.0260362 39.809366,35.3228094 39.809366,36.9000904 C39.809366,38.4773713 41.1509795,39.7741446 42.7828001,39.7741446 L46.3229707,39.7741446 C46.5611428,39.7724201 46.7886105,39.6784386 46.9548255,39.5137553 L62.1472896,24.8290628 L63.5968387,24.8290628 C65.2286593,24.8290628 66.5702728,23.5322896 66.5702728,21.9550086 C66.5702728,20.3777277 65.2286593,19.0809545 63.5968387,19.0809545 L60.0566681,19.0809545 C60.0257444,19.0795174 59.9945233,19.0795174 59.9635996,19.0809545 L59.9635996,19.0809545 Z M50.8110721,18.5061436 C51.4786081,18.5061436 52.0004458,19.0105401 52.0004458,19.6557653 C52.0004458,20.3009905 51.4786081,20.805387 50.8110721,20.805387 C50.1435362,20.805387 49.6216985,20.3009905 49.6216985,19.6557653 C49.6216985,19.0105401 50.1435362,18.5061436 50.8110721,18.5061436 L50.8110721,18.5061436 Z M50.8110721,16.7817111 C49.1795489,16.7817111 47.8376381,18.0787718 47.8376381,19.6557653 C47.8376381,21.2327588 49.1795489,22.5298195 50.8110721,22.5298195 C52.4425954,22.5298195 53.7845062,21.2327588 53.7845062,19.6557653 C53.7845062,18.0787718 52.4425954,16.7817111 50.8110721,16.7817111 L50.8110721,16.7817111 Z" id="Page-1-Copy-15" fill="#257961"></path>
                        <rect id="Rectangle-18-Copy-3" stroke-opacity="0.3" stroke="#82C700" stroke-width="3" x="0.85815056" y="0.47313293" width="104.48081" height="56.2746303"></rect>
                    </g>
                    <g id="escalera" transform="translate(0.000000, 14.000000)">
                        <path d="M50.8110721,25.1164682 C51.5371847,25.1164682 52.1464414,25.5096388 52.4277283,26.0953711 L49.0270117,29.3827143 L49.0270117,26.8409007 C49.0270117,25.8706201 49.8072408,25.1164682 50.8110721,25.1164682 L50.8110721,25.1164682 Z M60.4191297,20.805387 L63.5968387,20.805387 C64.2712135,20.805387 64.7862123,21.3031731 64.7862123,21.9550086 C64.7862123,22.6068441 64.2712135,23.1046303 63.5968387,23.1046303 L61.784828,23.1046303 C61.5481426,23.1040555 61.3206749,23.1945882 61.1529732,23.3561101 L45.9512915,38.0497121 L42.7828001,38.0497121 C42.1084253,38.0497121 41.5934265,37.5519259 41.5934265,36.9000904 C41.5934265,36.2482549 42.1084253,35.7504687 42.7828001,35.7504687 L44.5948109,35.7504687 C44.8329829,35.7487443 45.0604506,35.6547627 45.2266656,35.4900794 L60.4191297,20.805387 Z M59.9635996,19.0809545 C59.7593247,19.1022225 59.5690249,19.1910307 59.4248133,19.3324342 L53.7101704,24.8560789 C53.0631511,23.9740317 52.0069873,23.3920357 50.8110721,23.3920357 C48.849795,23.3920357 47.2429512,24.9451746 47.2429512,26.8409007 L47.2429512,31.1071468 L44.2231316,34.0260362 L42.7828001,34.0260362 C41.1509795,34.0260362 39.809366,35.3228094 39.809366,36.9000904 C39.809366,38.4773713 41.1509795,39.7741446 42.7828001,39.7741446 L46.3229707,39.7741446 C46.5611428,39.7724201 46.7886105,39.6784386 46.9548255,39.5137553 L62.1472896,24.8290628 L63.5968387,24.8290628 C65.2286593,24.8290628 66.5702728,23.5322896 66.5702728,21.9550086 C66.5702728,20.3777277 65.2286593,19.0809545 63.5968387,19.0809545 L60.0566681,19.0809545 C60.0257444,19.0795174 59.9945233,19.0795174 59.9635996,19.0809545 L59.9635996,19.0809545 Z M50.8110721,18.5061436 C51.4786081,18.5061436 52.0004458,19.0105401 52.0004458,19.6557653 C52.0004458,20.3009905 51.4786081,20.805387 50.8110721,20.805387 C50.1435362,20.805387 49.6216985,20.3009905 49.6216985,19.6557653 C49.6216985,19.0105401 50.1435362,18.5061436 50.8110721,18.5061436 L50.8110721,18.5061436 Z M50.8110721,16.7817111 C49.1795489,16.7817111 47.8376381,18.0787718 47.8376381,19.6557653 C47.8376381,21.2327588 49.1795489,22.5298195 50.8110721,22.5298195 C52.4425954,22.5298195 53.7845062,21.2327588 53.7845062,19.6557653 C53.7845062,18.0787718 52.4425954,16.7817111 50.8110721,16.7817111 L50.8110721,16.7817111 Z" id="Page-1-Copy-15" fill="#257961"></path>
                        <rect id="Rectangle-18-Copy-3" stroke-opacity="0.3" stroke="#82C700" stroke-width="3" x="0.85815056" y="0.47313293" width="104.48081" height="56.2746303"></rect>
                    </g>
                    <g id="escalera" transform="translate(559.000000, 14.523608)">
                        <path d="M50.8110721,25.1164682 C51.5371847,25.1164682 52.1464414,25.5096388 52.4277283,26.0953711 L49.0270117,29.3827143 L49.0270117,26.8409007 C49.0270117,25.8706201 49.8072408,25.1164682 50.8110721,25.1164682 L50.8110721,25.1164682 Z M60.4191297,20.805387 L63.5968387,20.805387 C64.2712135,20.805387 64.7862123,21.3031731 64.7862123,21.9550086 C64.7862123,22.6068441 64.2712135,23.1046303 63.5968387,23.1046303 L61.784828,23.1046303 C61.5481426,23.1040555 61.3206749,23.1945882 61.1529732,23.3561101 L45.9512915,38.0497121 L42.7828001,38.0497121 C42.1084253,38.0497121 41.5934265,37.5519259 41.5934265,36.9000904 C41.5934265,36.2482549 42.1084253,35.7504687 42.7828001,35.7504687 L44.5948109,35.7504687 C44.8329829,35.7487443 45.0604506,35.6547627 45.2266656,35.4900794 L60.4191297,20.805387 Z M59.9635996,19.0809545 C59.7593247,19.1022225 59.5690249,19.1910307 59.4248133,19.3324342 L53.7101704,24.8560789 C53.0631511,23.9740317 52.0069873,23.3920357 50.8110721,23.3920357 C48.849795,23.3920357 47.2429512,24.9451746 47.2429512,26.8409007 L47.2429512,31.1071468 L44.2231316,34.0260362 L42.7828001,34.0260362 C41.1509795,34.0260362 39.809366,35.3228094 39.809366,36.9000904 C39.809366,38.4773713 41.1509795,39.7741446 42.7828001,39.7741446 L46.3229707,39.7741446 C46.5611428,39.7724201 46.7886105,39.6784386 46.9548255,39.5137553 L62.1472896,24.8290628 L63.5968387,24.8290628 C65.2286593,24.8290628 66.5702728,23.5322896 66.5702728,21.9550086 C66.5702728,20.3777277 65.2286593,19.0809545 63.5968387,19.0809545 L60.0566681,19.0809545 C60.0257444,19.0795174 59.9945233,19.0795174 59.9635996,19.0809545 L59.9635996,19.0809545 Z M50.8110721,18.5061436 C51.4786081,18.5061436 52.0004458,19.0105401 52.0004458,19.6557653 C52.0004458,20.3009905 51.4786081,20.805387 50.8110721,20.805387 C50.1435362,20.805387 49.6216985,20.3009905 49.6216985,19.6557653 C49.6216985,19.0105401 50.1435362,18.5061436 50.8110721,18.5061436 L50.8110721,18.5061436 Z M50.8110721,16.7817111 C49.1795489,16.7817111 47.8376381,18.0787718 47.8376381,19.6557653 C47.8376381,21.2327588 49.1795489,22.5298195 50.8110721,22.5298195 C52.4425954,22.5298195 53.7845062,21.2327588 53.7845062,19.6557653 C53.7845062,18.0787718 52.4425954,16.7817111 50.8110721,16.7817111 L50.8110721,16.7817111 Z" id="Page-1-Copy-15" fill="#257961"></path>
                        <rect id="Rectangle-18-Copy-3" stroke-opacity="0.3" stroke="#82C700" stroke-width="3" x="0.85815056" y="0.47313293" width="104.48081" height="56.2746303"></rect>
                    </g>
                </g>
                <g id="estacionamiento-icn" transform="translate(86.000000, 249.000000)">
                    <g id="Group-5">
                        <g id="Group">
                            <text id="Zona-de" fill="#000000" font-family="Verdana" font-size="14" font-weight="normal">
                                <tspan x="26.208" y="101.672058">Zona de</tspan>
                            </text>
                            <text id="estacionamiento" fill="#000000" font-family="Verdana" font-size="14" font-weight="normal">
                                <tspan x="0.546" y="118.672058">estacionamiento</tspan>
                            </text>
                            <g id="Group-4" transform="translate(16.000000, 0.000000)" fill-rule="nonzero">
                                <path d="M37,73.5 C16.8416066,73.5 0.5,57.1583934 0.5,37 C0.5,16.8416066 16.8416066,0.5 37,0.5 C57.1583934,0.5 73.5,16.8416066 73.5,37 C73.5,57.1583934 57.1583934,73.5 37,73.5 Z M37,68.5 C54.3969696,68.5 68.5,54.3969696 68.5,37 C68.5,19.6030304 54.3969696,5.5 37,5.5 C19.6030304,5.5 5.5,19.6030304 5.5,37 C5.5,54.3969696 19.6030304,68.5 37,68.5 Z" id="Oval-2" fill="#EB4D3D"></path>
                                <polygon id="E" fill="#878787" points="46.5518672 22 46.5518672 26.5878285 32.7883817 26.5878285 32.7883817 35.1846473 43.6362379 35.1846473 43.6362379 39.6224066 32.7883817 39.6224066 32.7883817 48.3907331 46.5518672 48.3907331 46.5518672 53 27 53 27 22"></polygon>
                            </g>
                        </g>
                    </g>
                </g>
                <g id="estacionamiento-icn" transform="translate(339.000000, 129.000000)">
                    <g id="Group-5">
                        <g id="Group">
                            <text id="Zona-de" fill="#000000" font-family="Verdana" font-size="14" font-weight="normal">
                                <tspan x="26.208" y="101.672058">Zona de</tspan>
                            </text>
                            <text id="estacionamiento" fill="#000000" font-family="Verdana" font-size="14" font-weight="normal">
                                <tspan x="0.546" y="118.672058">estacionamiento</tspan>
                            </text>
                            <g id="Group-4" transform="translate(16.000000, 0.000000)" fill-rule="nonzero">
                                <path d="M37,73.5 C16.8416066,73.5 0.5,57.1583934 0.5,37 C0.5,16.8416066 16.8416066,0.5 37,0.5 C57.1583934,0.5 73.5,16.8416066 73.5,37 C73.5,57.1583934 57.1583934,73.5 37,73.5 Z M37,68.5 C54.3969696,68.5 68.5,54.3969696 68.5,37 C68.5,19.6030304 54.3969696,5.5 37,5.5 C19.6030304,5.5 5.5,19.6030304 5.5,37 C5.5,54.3969696 19.6030304,68.5 37,68.5 Z" id="Oval-2" fill="#EB4D3D"></path>
                                <polygon id="E" fill="#878787" points="46.5518672 22 46.5518672 26.5878285 32.7883817 26.5878285 32.7883817 35.1846473 43.6362379 35.1846473 43.6362379 39.6224066 32.7883817 39.6224066 32.7883817 48.3907331 46.5518672 48.3907331 46.5518672 53 27 53 27 22"></polygon>
                            </g>
                        </g>
                    </g>
                </g>
                <g id="estacionamiento-icn" transform="translate(339.000000, 586.000000)">
                    <g id="Group-5">
                        <g id="Group">
                            <text id="Zona-de" fill="#000000" font-family="Verdana" font-size="14" font-weight="normal">
                                <tspan x="26.208" y="101.672058">Zona de</tspan>
                            </text>
                            <text id="estacionamiento" fill="#000000" font-family="Verdana" font-size="14" font-weight="normal">
                                <tspan x="0.546" y="118.672058">estacionamiento</tspan>
                            </text>
                            <g id="Group-4" transform="translate(16.000000, 0.000000)" fill-rule="nonzero">
                                <path d="M37,73.5 C16.8416066,73.5 0.5,57.1583934 0.5,37 C0.5,16.8416066 16.8416066,0.5 37,0.5 C57.1583934,0.5 73.5,16.8416066 73.5,37 C73.5,57.1583934 57.1583934,73.5 37,73.5 Z M37,68.5 C54.3969696,68.5 68.5,54.3969696 68.5,37 C68.5,19.6030304 54.3969696,5.5 37,5.5 C19.6030304,5.5 5.5,19.6030304 5.5,37 C5.5,54.3969696 19.6030304,68.5 37,68.5 Z" id="Oval-2" fill="#EB4D3D"></path>
                                <polygon id="E" fill="#878787" points="46.5518672 22 46.5518672 26.5878285 32.7883817 26.5878285 32.7883817 35.1846473 43.6362379 35.1846473 43.6362379 39.6224066 32.7883817 39.6224066 32.7883817 48.3907331 46.5518672 48.3907331 46.5518672 53 27 53 27 22"></polygon>
                            </g>
                        </g>
                    </g>
                </g>
                <g id="estacionamiento-icn" transform="translate(86.000000, 423.000000)">
                    <g id="Group-5">
                        <g id="Group">
                            <text id="Zona-de" fill="#000000" font-family="Verdana" font-size="14" font-weight="normal">
                                <tspan x="26.208" y="101.672058">Zona de</tspan>
                            </text>
                            <text id="estacionamiento" fill="#000000" font-family="Verdana" font-size="14" font-weight="normal">
                                <tspan x="0.546" y="118.672058">estacionamiento</tspan>
                            </text>
                            <g id="Group-4" transform="translate(16.000000, 0.000000)" fill-rule="nonzero">
                                <path d="M37,73.5 C16.8416066,73.5 0.5,57.1583934 0.5,37 C0.5,16.8416066 16.8416066,0.5 37,0.5 C57.1583934,0.5 73.5,16.8416066 73.5,37 C73.5,57.1583934 57.1583934,73.5 37,73.5 Z M37,68.5 C54.3969696,68.5 68.5,54.3969696 68.5,37 C68.5,19.6030304 54.3969696,5.5 37,5.5 C19.6030304,5.5 5.5,19.6030304 5.5,37 C5.5,54.3969696 19.6030304,68.5 37,68.5 Z" id="Oval-2" fill="#EB4D3D"></path>
                                <polygon id="E" fill="#878787" points="46.5518672 22 46.5518672 26.5878285 32.7883817 26.5878285 32.7883817 35.1846473 43.6362379 35.1846473 43.6362379 39.6224066 32.7883817 39.6224066 32.7883817 48.3907331 46.5518672 48.3907331 46.5518672 53 27 53 27 22"></polygon>
                            </g>
                        </g>
                    </g>
                </g>
            </g>
            <text id="Piso-3" font-family="verdana" font-size="28" font-weight="normal" fill="#82C700">
                <tspan x="75.3170212" y="46">Piso 3</tspan>
            </text>
        </g>
    </g>
</svg>